<svg width="32" height="32" xmlns="http://www.w3.org/2000/svg">
  <defs>
    <linearGradient x1="50%" y1="0%" x2="100%" y2="100%" id="a">
      <stop stop-color="#28B0AC" offset="0%"/>
      <stop stop-color="#F3D14A" offset="100%"/>
    </linearGradient>
  </defs>
  <g fill="none" fill-rule="evenodd">
    <rect fill="#1B2121" width="32" height="32" rx="16"/>
    <g fill-rule="nonzero">
      <path d="M16 0a16 16 0 1 1 0 32 16 16 0 0 1 0-32Zm0 1.33a14.66 14.66 0 1 0 0 29.33 14.66 14.66 0 0 0 0-29.33Z" fill="#FFF"/>
      <path d="M16 3.56a12.44 12.44 0 1 1 0 24.88 12.44 12.44 0 0 1 0-24.88Zm9.27 9.73-.17.12-.12.08c-.95.58-2.93 1.13-5.43 1.42l-.56.05c-.48.05-.98.09-1.49.11l-.3.01-.66.02H15l-.37-.02c-.5-.02-1-.05-1.47-.1l-.47-.04-.6-.07-.6-.08-.28-.04-.55-.1c-1.8-.32-3.17-.78-3.86-1.24l.07.11.02.07.05.15.11.27.13.32.16.36.19.4.2.4.2.42.21.42.22.41.21.4.2.36.3.47.16.26c.08.12.16.21.22.28l.04.04.8.66-3.77 1.81a10.85 10.85 0 0 0 18.85.34l.11-.2-3.86-1.94.79-.67.06-.06.09-.1.05-.07.17-.24.1-.14.2-.33.22-.37.24-.4.24-.43.24-.44.23-.44.22-.43.2-.4.19-.38.15-.34.05-.1.07-.2.1-.27.02-.06.02-.06Zm-14.33 2.54c.42.87 1.28 1.5 2.3 1.67l.16.02h.31l.17-.03c.8-.14 1.5-.55 1.96-1.15l.1-.13.09-.14.05.08.09.13a3.03 3.03 0 0 0 1.89 1.2l.16.03.17.02.16-.01A3.2 3.2 0 0 0 21.02 16l.07-.14-.22.8-.12.38c-.13.38-.27.74-.42 1.1l-.16.35-.4.78-.05.09a.9.9 0 0 1-.13.15l-.08.07-.3.23-.23.14c-.51.32-1.07.54-1.7.72l-.26.06-.8.16-.14.02h-.12l-.14-.02-.77-.15-.28-.07a6.42 6.42 0 0 1-1.72-.72l-.19-.12-.32-.25-.09-.07a.9.9 0 0 1-.13-.15l-.05-.09-.39-.76-.16-.37c-.16-.36-.3-.72-.43-1.09l-.12-.37-.23-.85Zm5.08-9.31c-.6 0-1.36.4-2.41 1.2.03-.11.03-.2.02-.27l-.01-.06-.08-.28-.02-.12c-.72-.14-1.73.58-2.03 1.11a2.6 2.6 0 0 0-.26.7l-.02.11-.08.37-.05.2a1.4 1.4 0 0 1-.12-.39l-.05-.25-.07-.33a3.14 3.14 0 0 0-.48-1.14c-.15-.17-.54-.21-.83-.22h-.32l-.07.1-.06.1-.04.06c-.17.3-.37.84-.09 1.47.24.3.9.94 1.25 1.1l-.22-.04-.34-.06c-.27-.06-.57-.1-.96-.03-.33.05-.82.3-1.08.6.07.04.12.09.16.14l.14.16.07.08c-.87.34-1.26.73-1.26 1.2 0 .1.02.2.06.3.37.26.92.52 1.62.76l.37.11c.93.29 2.1.53 3.42.7l.53.06.28.03.55.05 1.16.07.3.01.37.01h1.17l.64-.02c.4-.01.8-.04 1.18-.07l.38-.03.74-.08.71-.09c.36-.05.7-.1 1.03-.17l.49-.1c1.5-.31 2.66-.73 3.32-1.16l.1-.07.17-.13.02-.09v-.09c0-.4-.32-.71-.98-1l-.14-.06-.17-.06-.19-.07-.32-.1-.24-.08-.3-.1-.34-.09-1.32-.35-1.56-1.33-.59-.49-.2-.16-.5-.38c-1.08-.82-1.85-1.24-2.45-1.24Z" fill="url(#a)"/>
    </g>
  </g>
</svg>
